<mxfile host="app.diagrams.net" agent="Mozilla/5.0 (X11; Linux x86_64) AppleWebKit/537.36 (KHTML, like Gecko) Chrome/133.0.0.0 Safari/537.36" version="26.1.1">
  <diagram name="Page-1" id="juCOnUi9ip3WTIvUoLlp">
    <mxGraphModel dx="941" dy="547" grid="1" gridSize="10" guides="1" tooltips="1" connect="1" arrows="1" fold="1" page="1" pageScale="1" pageWidth="850" pageHeight="1100" math="0" shadow="0">
      <root>
        <mxCell id="0" />
        <mxCell id="1" parent="0" />
        <mxCell id="kvWB5lQ28OjroLRQHnsC-7" style="edgeStyle=orthogonalEdgeStyle;rounded=0;orthogonalLoop=1;jettySize=auto;html=1;exitX=0.5;exitY=1;exitDx=0;exitDy=0;" edge="1" parent="1" source="kvWB5lQ28OjroLRQHnsC-1">
          <mxGeometry relative="1" as="geometry">
            <mxPoint x="70" y="1880" as="targetPoint" />
          </mxGeometry>
        </mxCell>
        <mxCell id="kvWB5lQ28OjroLRQHnsC-1" value="UE" style="rounded=0;whiteSpace=wrap;html=1;" vertex="1" parent="1">
          <mxGeometry x="40" y="40" width="60" height="30" as="geometry" />
        </mxCell>
        <mxCell id="kvWB5lQ28OjroLRQHnsC-8" style="edgeStyle=orthogonalEdgeStyle;rounded=0;orthogonalLoop=1;jettySize=auto;html=1;exitX=0.5;exitY=1;exitDx=0;exitDy=0;" edge="1" parent="1" source="kvWB5lQ28OjroLRQHnsC-2">
          <mxGeometry relative="1" as="geometry">
            <mxPoint x="210" y="1880" as="targetPoint" />
          </mxGeometry>
        </mxCell>
        <mxCell id="kvWB5lQ28OjroLRQHnsC-2" value="eNB" style="rounded=0;whiteSpace=wrap;html=1;" vertex="1" parent="1">
          <mxGeometry x="180" y="40" width="60" height="30" as="geometry" />
        </mxCell>
        <mxCell id="kvWB5lQ28OjroLRQHnsC-9" style="edgeStyle=orthogonalEdgeStyle;rounded=0;orthogonalLoop=1;jettySize=auto;html=1;exitX=0.5;exitY=1;exitDx=0;exitDy=0;" edge="1" parent="1" source="kvWB5lQ28OjroLRQHnsC-3">
          <mxGeometry relative="1" as="geometry">
            <mxPoint x="350" y="1880" as="targetPoint" />
          </mxGeometry>
        </mxCell>
        <mxCell id="kvWB5lQ28OjroLRQHnsC-3" value="MME" style="rounded=0;whiteSpace=wrap;html=1;" vertex="1" parent="1">
          <mxGeometry x="320" y="40" width="60" height="30" as="geometry" />
        </mxCell>
        <mxCell id="kvWB5lQ28OjroLRQHnsC-10" style="edgeStyle=orthogonalEdgeStyle;rounded=0;orthogonalLoop=1;jettySize=auto;html=1;exitX=0.5;exitY=1;exitDx=0;exitDy=0;" edge="1" parent="1" source="kvWB5lQ28OjroLRQHnsC-4">
          <mxGeometry relative="1" as="geometry">
            <mxPoint x="490" y="1880" as="targetPoint" />
          </mxGeometry>
        </mxCell>
        <mxCell id="kvWB5lQ28OjroLRQHnsC-4" value="HSS" style="rounded=0;whiteSpace=wrap;html=1;" vertex="1" parent="1">
          <mxGeometry x="460" y="40" width="60" height="30" as="geometry" />
        </mxCell>
        <mxCell id="kvWB5lQ28OjroLRQHnsC-11" style="edgeStyle=orthogonalEdgeStyle;rounded=0;orthogonalLoop=1;jettySize=auto;html=1;exitX=0.5;exitY=1;exitDx=0;exitDy=0;" edge="1" parent="1" source="kvWB5lQ28OjroLRQHnsC-5">
          <mxGeometry relative="1" as="geometry">
            <mxPoint x="630" y="1880" as="targetPoint" />
          </mxGeometry>
        </mxCell>
        <mxCell id="kvWB5lQ28OjroLRQHnsC-5" value="SGW" style="rounded=0;whiteSpace=wrap;html=1;" vertex="1" parent="1">
          <mxGeometry x="600" y="40" width="60" height="30" as="geometry" />
        </mxCell>
        <mxCell id="kvWB5lQ28OjroLRQHnsC-13" style="edgeStyle=orthogonalEdgeStyle;rounded=0;orthogonalLoop=1;jettySize=auto;html=1;exitX=0.5;exitY=1;exitDx=0;exitDy=0;" edge="1" parent="1" source="kvWB5lQ28OjroLRQHnsC-6">
          <mxGeometry relative="1" as="geometry">
            <mxPoint x="769" y="1880" as="targetPoint" />
          </mxGeometry>
        </mxCell>
        <mxCell id="kvWB5lQ28OjroLRQHnsC-6" value="PGW" style="rounded=0;whiteSpace=wrap;html=1;" vertex="1" parent="1">
          <mxGeometry x="740" y="40" width="60" height="30" as="geometry" />
        </mxCell>
        <mxCell id="kvWB5lQ28OjroLRQHnsC-15" value="" style="endArrow=classic;html=1;rounded=0;" edge="1" parent="1">
          <mxGeometry width="50" height="50" relative="1" as="geometry">
            <mxPoint x="70" y="110" as="sourcePoint" />
            <mxPoint x="210" y="110" as="targetPoint" />
          </mxGeometry>
        </mxCell>
        <mxCell id="kvWB5lQ28OjroLRQHnsC-16" value="&lt;font style=&quot;font-size: 10px;&quot;&gt;RACH Request&lt;/font&gt;" style="text;html=1;align=left;verticalAlign=middle;whiteSpace=wrap;rounded=0;" vertex="1" parent="1">
          <mxGeometry x="80" y="90" width="110" height="20" as="geometry" />
        </mxCell>
        <mxCell id="kvWB5lQ28OjroLRQHnsC-17" value="&lt;font style=&quot;font-size: 8px;&quot;&gt;RA-RNTI, Preamble ID (RAPID)&lt;/font&gt;" style="text;html=1;align=left;verticalAlign=middle;whiteSpace=wrap;rounded=0;fontStyle=2" vertex="1" parent="1">
          <mxGeometry x="80" y="110" width="130" height="20" as="geometry" />
        </mxCell>
        <mxCell id="kvWB5lQ28OjroLRQHnsC-18" value="" style="endArrow=classic;html=1;rounded=0;" edge="1" parent="1">
          <mxGeometry width="50" height="50" relative="1" as="geometry">
            <mxPoint x="70" y="270" as="sourcePoint" />
            <mxPoint x="210" y="270" as="targetPoint" />
          </mxGeometry>
        </mxCell>
        <mxCell id="kvWB5lQ28OjroLRQHnsC-19" value="&lt;font style=&quot;font-size: 10px;&quot;&gt;RRC Connection Request&lt;/font&gt;" style="text;html=1;align=left;verticalAlign=middle;whiteSpace=wrap;rounded=0;" vertex="1" parent="1">
          <mxGeometry x="80" y="250" width="120" height="20" as="geometry" />
        </mxCell>
        <mxCell id="kvWB5lQ28OjroLRQHnsC-20" value="&lt;div style=&quot;line-height: 100%;&quot;&gt;&lt;font style=&quot;font-size: 8px; line-height: 100%;&quot;&gt;UE Identity: S-TMSI / IMSI&lt;/font&gt;&lt;div&gt;&lt;font style=&quot;font-size: 8px; line-height: 100%;&quot;&gt;Establishment Cause: MO Signaling, MI Signaling&lt;/font&gt;&lt;/div&gt;&lt;/div&gt;" style="text;html=1;align=left;verticalAlign=middle;whiteSpace=wrap;rounded=0;fontStyle=2" vertex="1" parent="1">
          <mxGeometry x="80" y="270" width="120" height="40" as="geometry" />
        </mxCell>
        <mxCell id="kvWB5lQ28OjroLRQHnsC-21" value="" style="endArrow=classic;html=1;rounded=0;" edge="1" parent="1">
          <mxGeometry width="50" height="50" relative="1" as="geometry">
            <mxPoint x="210" y="190" as="sourcePoint" />
            <mxPoint x="70" y="190" as="targetPoint" />
          </mxGeometry>
        </mxCell>
        <mxCell id="kvWB5lQ28OjroLRQHnsC-22" value="&lt;font style=&quot;font-size: 10px;&quot;&gt;RACH Response&lt;/font&gt;" style="text;html=1;align=left;verticalAlign=middle;whiteSpace=wrap;rounded=0;" vertex="1" parent="1">
          <mxGeometry x="80" y="170" width="110" height="20" as="geometry" />
        </mxCell>
        <mxCell id="kvWB5lQ28OjroLRQHnsC-23" value="&lt;font style=&quot;font-size: 8px;&quot;&gt;TA, TC-RNTI, Uplink Grant (DCI-0)&lt;/font&gt;" style="text;html=1;align=left;verticalAlign=middle;whiteSpace=wrap;rounded=0;fontStyle=2" vertex="1" parent="1">
          <mxGeometry x="80" y="190" width="130" height="20" as="geometry" />
        </mxCell>
        <mxCell id="kvWB5lQ28OjroLRQHnsC-24" value="" style="endArrow=classic;html=1;rounded=0;" edge="1" parent="1">
          <mxGeometry width="50" height="50" relative="1" as="geometry">
            <mxPoint x="210" y="350" as="sourcePoint" />
            <mxPoint x="70" y="350" as="targetPoint" />
          </mxGeometry>
        </mxCell>
        <mxCell id="kvWB5lQ28OjroLRQHnsC-25" value="&lt;font style=&quot;font-size: 10px;&quot;&gt;RRC Connection Setup&lt;/font&gt;" style="text;html=1;align=left;verticalAlign=middle;whiteSpace=wrap;rounded=0;" vertex="1" parent="1">
          <mxGeometry x="80" y="330" width="110" height="20" as="geometry" />
        </mxCell>
        <mxCell id="kvWB5lQ28OjroLRQHnsC-26" value="&lt;span style=&quot;font-size: 8px;&quot;&gt;C-RNTI, SRB Identity, RLC configuration (DL/UL AM RLC), UL-SCH configuration, PHR configuration, Uplink Power Control&lt;/span&gt;" style="text;html=1;align=left;verticalAlign=middle;whiteSpace=wrap;rounded=0;fontStyle=2" vertex="1" parent="1">
          <mxGeometry x="80" y="350" width="120" height="70" as="geometry" />
        </mxCell>
        <mxCell id="kvWB5lQ28OjroLRQHnsC-27" value="" style="endArrow=classic;html=1;rounded=0;" edge="1" parent="1">
          <mxGeometry width="50" height="50" relative="1" as="geometry">
            <mxPoint x="70" y="520" as="sourcePoint" />
            <mxPoint x="210" y="520" as="targetPoint" />
          </mxGeometry>
        </mxCell>
        <mxCell id="kvWB5lQ28OjroLRQHnsC-28" value="&lt;font style=&quot;font-size: 10px;&quot;&gt;RRC Connection Setup Complete + &lt;font style=&quot;color: rgb(41, 95, 148);&quot;&gt;Attach Request&lt;/font&gt; + &lt;font style=&quot;color: rgb(41, 95, 148);&quot;&gt;PDN Connectivity Request&lt;/font&gt;&lt;/font&gt;" style="text;html=1;align=left;verticalAlign=middle;whiteSpace=wrap;rounded=0;" vertex="1" parent="1">
          <mxGeometry x="80" y="450" width="120" height="70" as="geometry" />
        </mxCell>
        <mxCell id="kvWB5lQ28OjroLRQHnsC-30" value="" style="endArrow=classic;html=1;rounded=0;fontColor=#33FF33;labelBackgroundColor=#B5739D;labelBorderColor=#67AB9F;fillColor=#f5f5f5;strokeColor=light-dark(#000000, #3a756b);" edge="1" parent="1">
          <mxGeometry width="50" height="50" relative="1" as="geometry">
            <mxPoint x="210" y="520" as="sourcePoint" />
            <mxPoint x="350" y="520" as="targetPoint" />
          </mxGeometry>
        </mxCell>
        <mxCell id="kvWB5lQ28OjroLRQHnsC-31" value="&lt;font style=&quot;font-size: 10px;&quot;&gt;Attach Request&lt;/font&gt;" style="text;html=1;align=left;verticalAlign=middle;whiteSpace=wrap;rounded=0;" vertex="1" parent="1">
          <mxGeometry x="220" y="500" width="120" height="20" as="geometry" />
        </mxCell>
        <mxCell id="kvWB5lQ28OjroLRQHnsC-32" value="&lt;span style=&quot;font-size: 8px;&quot;&gt;Attach Type, PLMN, Identity, Old TAI, Old GUMMEI, Old GUTI, PDN Type, Voice Domain Preference IMS / CSFB&lt;/span&gt;" style="text;html=1;align=left;verticalAlign=middle;whiteSpace=wrap;rounded=0;fontStyle=2" vertex="1" parent="1">
          <mxGeometry x="220" y="520" width="120" height="60" as="geometry" />
        </mxCell>
        <mxCell id="kvWB5lQ28OjroLRQHnsC-33" value="" style="endArrow=classic;html=1;rounded=0;" edge="1" parent="1">
          <mxGeometry width="50" height="50" relative="1" as="geometry">
            <mxPoint x="350" y="640" as="sourcePoint" />
            <mxPoint x="70" y="640" as="targetPoint" />
          </mxGeometry>
        </mxCell>
        <mxCell id="kvWB5lQ28OjroLRQHnsC-34" value="&lt;font style=&quot;font-size: 10px;&quot;&gt;EMMI Identity Request&lt;/font&gt;" style="text;html=1;align=left;verticalAlign=middle;whiteSpace=wrap;rounded=0;" vertex="1" parent="1">
          <mxGeometry x="80" y="620" width="120" height="20" as="geometry" />
        </mxCell>
        <mxCell id="kvWB5lQ28OjroLRQHnsC-35" value="" style="endArrow=classic;html=1;rounded=0;" edge="1" parent="1">
          <mxGeometry width="50" height="50" relative="1" as="geometry">
            <mxPoint x="70" y="680" as="sourcePoint" />
            <mxPoint x="350" y="680" as="targetPoint" />
          </mxGeometry>
        </mxCell>
        <mxCell id="kvWB5lQ28OjroLRQHnsC-36" value="&lt;font style=&quot;font-size: 10px;&quot;&gt;EMMI Identity Response&lt;/font&gt;" style="text;html=1;align=left;verticalAlign=middle;whiteSpace=wrap;rounded=0;" vertex="1" parent="1">
          <mxGeometry x="80" y="660" width="120" height="20" as="geometry" />
        </mxCell>
        <mxCell id="kvWB5lQ28OjroLRQHnsC-37" value="" style="endArrow=classic;html=1;rounded=0;fontColor=#33FF33;labelBackgroundColor=#B5739D;labelBorderColor=#67AB9F;fillColor=#f5f5f5;strokeColor=light-dark(#000000, #3a756b);" edge="1" parent="1">
          <mxGeometry width="50" height="50" relative="1" as="geometry">
            <mxPoint x="350" y="720" as="sourcePoint" />
            <mxPoint x="490" y="720" as="targetPoint" />
          </mxGeometry>
        </mxCell>
        <mxCell id="kvWB5lQ28OjroLRQHnsC-38" value="&lt;font style=&quot;font-size: 10px;&quot;&gt;Authentication Info Request (Diameter Protocol IMSI)&lt;/font&gt;" style="text;html=1;align=left;verticalAlign=middle;whiteSpace=wrap;rounded=0;" vertex="1" parent="1">
          <mxGeometry x="360" y="670" width="120" height="50" as="geometry" />
        </mxCell>
        <mxCell id="kvWB5lQ28OjroLRQHnsC-39" value="" style="endArrow=classic;html=1;rounded=0;fontColor=#33FF33;labelBackgroundColor=#B5739D;labelBorderColor=#67AB9F;fillColor=#f5f5f5;strokeColor=light-dark(#000000, #3a756b);" edge="1" parent="1">
          <mxGeometry width="50" height="50" relative="1" as="geometry">
            <mxPoint x="490" y="800" as="sourcePoint" />
            <mxPoint x="350" y="800" as="targetPoint" />
          </mxGeometry>
        </mxCell>
        <mxCell id="kvWB5lQ28OjroLRQHnsC-40" value="&lt;font style=&quot;font-size: 10px;&quot;&gt;Authentcation Info Response&lt;/font&gt;" style="text;html=1;align=left;verticalAlign=middle;whiteSpace=wrap;rounded=0;" vertex="1" parent="1">
          <mxGeometry x="360" y="760" width="120" height="40" as="geometry" />
        </mxCell>
        <mxCell id="kvWB5lQ28OjroLRQHnsC-41" value="&lt;span style=&quot;font-size: 8px;&quot;&gt;RAND, AUTN, XRES, IK, CK&lt;/span&gt;" style="text;html=1;align=left;verticalAlign=middle;whiteSpace=wrap;rounded=0;fontStyle=2" vertex="1" parent="1">
          <mxGeometry x="360" y="800" width="120" height="20" as="geometry" />
        </mxCell>
        <mxCell id="kvWB5lQ28OjroLRQHnsC-42" value="&lt;div style=&quot;line-height: 80%;&quot;&gt;&lt;font style=&quot;font-size: 8px; line-height: 80%;&quot;&gt;MSG-0&lt;/font&gt;&lt;div&gt;&lt;font style=&quot;font-size: 8px; line-height: 80%;&quot;&gt;(SRB-0)&lt;/font&gt;&lt;/div&gt;&lt;/div&gt;" style="text;html=1;align=left;verticalAlign=middle;whiteSpace=wrap;rounded=0;fontStyle=2;fontColor=#295F94;" vertex="1" parent="1">
          <mxGeometry x="30" y="100" width="40" height="20" as="geometry" />
        </mxCell>
        <mxCell id="kvWB5lQ28OjroLRQHnsC-43" value="&lt;div style=&quot;line-height: 80%;&quot;&gt;&lt;font style=&quot;font-size: 8px; line-height: 80%;&quot;&gt;MSG-1&lt;/font&gt;&lt;div&gt;&lt;font style=&quot;font-size: 8px; line-height: 80%;&quot;&gt;(SRB-0)&lt;/font&gt;&lt;/div&gt;&lt;/div&gt;" style="text;html=1;align=left;verticalAlign=middle;whiteSpace=wrap;rounded=0;fontStyle=2;fontColor=#295F94;" vertex="1" parent="1">
          <mxGeometry x="30" y="180" width="40" height="20" as="geometry" />
        </mxCell>
        <mxCell id="kvWB5lQ28OjroLRQHnsC-44" value="&lt;div style=&quot;line-height: 80%;&quot;&gt;&lt;font style=&quot;font-size: 8px; line-height: 80%;&quot;&gt;MSG-2&lt;/font&gt;&lt;div&gt;&lt;font style=&quot;font-size: 8px; line-height: 80%;&quot;&gt;(SRB-0)&lt;/font&gt;&lt;/div&gt;&lt;/div&gt;" style="text;html=1;align=left;verticalAlign=middle;whiteSpace=wrap;rounded=0;fontStyle=2;fontColor=#295F94;" vertex="1" parent="1">
          <mxGeometry x="30" y="260" width="40" height="20" as="geometry" />
        </mxCell>
        <mxCell id="kvWB5lQ28OjroLRQHnsC-45" value="&lt;div style=&quot;line-height: 80%;&quot;&gt;&lt;font style=&quot;font-size: 8px; line-height: 80%;&quot;&gt;MSG-3&lt;/font&gt;&lt;div&gt;&lt;font style=&quot;font-size: 8px; line-height: 80%;&quot;&gt;(SRB-1)&lt;/font&gt;&lt;/div&gt;&lt;/div&gt;" style="text;html=1;align=left;verticalAlign=middle;whiteSpace=wrap;rounded=0;fontStyle=2;fontColor=#295F94;" vertex="1" parent="1">
          <mxGeometry x="30" y="340" width="40" height="20" as="geometry" />
        </mxCell>
        <mxCell id="kvWB5lQ28OjroLRQHnsC-47" style="edgeStyle=orthogonalEdgeStyle;rounded=0;orthogonalLoop=1;jettySize=auto;html=1;exitX=0.5;exitY=1;exitDx=0;exitDy=0;" edge="1" parent="1" source="kvWB5lQ28OjroLRQHnsC-46" target="kvWB5lQ28OjroLRQHnsC-49">
          <mxGeometry relative="1" as="geometry">
            <mxPoint x="30" y="740" as="targetPoint" />
            <Array as="points">
              <mxPoint x="30" y="660" />
            </Array>
          </mxGeometry>
        </mxCell>
        <mxCell id="kvWB5lQ28OjroLRQHnsC-46" value="" style="shape=partialRectangle;whiteSpace=wrap;html=1;bottom=1;right=1;left=1;top=0;fillColor=none;routingCenterX=-0.5;rotation=90;" vertex="1" parent="1">
          <mxGeometry x="25" y="655" width="60" height="10" as="geometry" />
        </mxCell>
        <mxCell id="kvWB5lQ28OjroLRQHnsC-49" value="&lt;span style=&quot;font-size: 8px;&quot;&gt;&lt;font style=&quot;color: rgb(255, 102, 102);&quot;&gt;When UE gets ON for the first time or when Old MME couldn&#39;t be able to varify UE&lt;/font&gt;&lt;/span&gt;" style="text;html=1;align=left;verticalAlign=middle;whiteSpace=wrap;rounded=0;fontStyle=2" vertex="1" parent="1">
          <mxGeometry x="10" y="740" width="50" height="120" as="geometry" />
        </mxCell>
        <mxCell id="kvWB5lQ28OjroLRQHnsC-50" value="&lt;span style=&quot;font-size: 8px;&quot;&gt;&lt;font style=&quot;color: rgb(255, 102, 102);&quot;&gt;eNB cannot process NAS messages so it forwards them as they are&lt;/font&gt;&lt;/span&gt;" style="text;html=1;align=left;verticalAlign=middle;whiteSpace=wrap;rounded=0;fontStyle=2" vertex="1" parent="1">
          <mxGeometry x="220" y="450" width="120" height="50" as="geometry" />
        </mxCell>
        <mxCell id="kvWB5lQ28OjroLRQHnsC-51" value="&lt;span style=&quot;font-size: 8px;&quot;&gt;&lt;font style=&quot;color: rgb(255, 102, 102);&quot;&gt;It doesn&#39;t have NAS layer&lt;/font&gt;&lt;/span&gt;" style="text;html=1;align=center;verticalAlign=middle;whiteSpace=wrap;rounded=0;fontStyle=2" vertex="1" parent="1">
          <mxGeometry x="160" y="20" width="100" height="20" as="geometry" />
        </mxCell>
        <mxCell id="kvWB5lQ28OjroLRQHnsC-52" value="" style="endArrow=classic;html=1;rounded=0;" edge="1" parent="1">
          <mxGeometry width="50" height="50" relative="1" as="geometry">
            <mxPoint x="350" y="840" as="sourcePoint" />
            <mxPoint x="70" y="840" as="targetPoint" />
          </mxGeometry>
        </mxCell>
        <mxCell id="kvWB5lQ28OjroLRQHnsC-53" value="&lt;font style=&quot;font-size: 10px;&quot;&gt;Authentication Request&lt;/font&gt;" style="text;html=1;align=left;verticalAlign=middle;whiteSpace=wrap;rounded=0;" vertex="1" parent="1">
          <mxGeometry x="80" y="820" width="120" height="20" as="geometry" />
        </mxCell>
        <mxCell id="kvWB5lQ28OjroLRQHnsC-54" value="&lt;span style=&quot;font-size: 8px;&quot;&gt;RAND, AUTN&lt;/span&gt;" style="text;html=1;align=left;verticalAlign=middle;whiteSpace=wrap;rounded=0;fontStyle=2" vertex="1" parent="1">
          <mxGeometry x="80" y="840" width="120" height="20" as="geometry" />
        </mxCell>
        <mxCell id="kvWB5lQ28OjroLRQHnsC-55" value="" style="endArrow=classic;html=1;rounded=0;" edge="1" parent="1">
          <mxGeometry width="50" height="50" relative="1" as="geometry">
            <mxPoint x="70" y="900" as="sourcePoint" />
            <mxPoint x="350" y="900" as="targetPoint" />
          </mxGeometry>
        </mxCell>
        <mxCell id="kvWB5lQ28OjroLRQHnsC-56" value="&lt;font style=&quot;font-size: 10px;&quot;&gt;Authentication Response&lt;/font&gt;" style="text;html=1;align=left;verticalAlign=middle;whiteSpace=wrap;rounded=0;" vertex="1" parent="1">
          <mxGeometry x="80" y="880" width="120" height="20" as="geometry" />
        </mxCell>
        <mxCell id="kvWB5lQ28OjroLRQHnsC-59" value="&lt;span style=&quot;font-size: 8px;&quot;&gt;RES = XRES (&lt;font style=&quot;color: rgb(0, 153, 0);&quot;&gt;Pass&lt;/font&gt;)&lt;/span&gt;" style="text;html=1;align=left;verticalAlign=middle;whiteSpace=wrap;rounded=0;fontStyle=2" vertex="1" parent="1">
          <mxGeometry x="80" y="900" width="120" height="20" as="geometry" />
        </mxCell>
        <mxCell id="kvWB5lQ28OjroLRQHnsC-60" value="" style="endArrow=classic;html=1;rounded=0;" edge="1" parent="1">
          <mxGeometry width="50" height="50" relative="1" as="geometry">
            <mxPoint x="350" y="960" as="sourcePoint" />
            <mxPoint x="70" y="960" as="targetPoint" />
          </mxGeometry>
        </mxCell>
        <mxCell id="kvWB5lQ28OjroLRQHnsC-61" value="&lt;font style=&quot;font-size: 10px;&quot;&gt;Security Mode Command&lt;/font&gt;" style="text;html=1;align=left;verticalAlign=middle;whiteSpace=wrap;rounded=0;" vertex="1" parent="1">
          <mxGeometry x="80" y="940" width="120" height="20" as="geometry" />
        </mxCell>
        <mxCell id="kvWB5lQ28OjroLRQHnsC-62" value="&lt;span style=&quot;font-size: 8px;&quot;&gt;Intigrity Key, Cipher Key&lt;/span&gt;" style="text;html=1;align=left;verticalAlign=middle;whiteSpace=wrap;rounded=0;fontStyle=2" vertex="1" parent="1">
          <mxGeometry x="80" y="960" width="120" height="20" as="geometry" />
        </mxCell>
        <mxCell id="kvWB5lQ28OjroLRQHnsC-63" value="" style="endArrow=classic;html=1;rounded=0;" edge="1" parent="1">
          <mxGeometry width="50" height="50" relative="1" as="geometry">
            <mxPoint x="70" y="1040" as="sourcePoint" />
            <mxPoint x="350" y="1040" as="targetPoint" />
          </mxGeometry>
        </mxCell>
        <mxCell id="kvWB5lQ28OjroLRQHnsC-64" value="&lt;font style=&quot;font-size: 10px;&quot;&gt;Security Mode Command Complete&lt;/font&gt;" style="text;html=1;align=left;verticalAlign=middle;whiteSpace=wrap;rounded=0;" vertex="1" parent="1">
          <mxGeometry x="80" y="1000" width="120" height="40" as="geometry" />
        </mxCell>
        <mxCell id="kvWB5lQ28OjroLRQHnsC-66" value="" style="endArrow=classic;html=1;rounded=0;" edge="1" parent="1">
          <mxGeometry width="50" height="50" relative="1" as="geometry">
            <mxPoint x="350" y="1120" as="sourcePoint" />
            <mxPoint x="630" y="1120" as="targetPoint" />
          </mxGeometry>
        </mxCell>
        <mxCell id="kvWB5lQ28OjroLRQHnsC-67" value="&lt;font style=&quot;font-size: 10px;&quot;&gt;Create Session Request&lt;/font&gt;" style="text;html=1;align=left;verticalAlign=middle;whiteSpace=wrap;rounded=0;" vertex="1" parent="1">
          <mxGeometry x="360" y="1090" width="120" height="30" as="geometry" />
        </mxCell>
        <mxCell id="kvWB5lQ28OjroLRQHnsC-68" value="&lt;span style=&quot;font-size: 8px;&quot;&gt;GTP-ID, Sender F-TEID for Control Plane, OCI, TAI, PGWIP Address, PDN IP Address, APN Type, RAT Type&lt;/span&gt;" style="text;html=1;align=left;verticalAlign=middle;whiteSpace=wrap;rounded=0;fontStyle=2" vertex="1" parent="1">
          <mxGeometry x="360" y="1120" width="120" height="60" as="geometry" />
        </mxCell>
        <mxCell id="kvWB5lQ28OjroLRQHnsC-69" value="" style="endArrow=classic;html=1;rounded=0;fontColor=#33FF33;labelBackgroundColor=#B5739D;labelBorderColor=#67AB9F;fillColor=#f5f5f5;strokeColor=light-dark(#000000, #3a756b);" edge="1" parent="1">
          <mxGeometry width="50" height="50" relative="1" as="geometry">
            <mxPoint x="630" y="1119.31" as="sourcePoint" />
            <mxPoint x="770" y="1119.31" as="targetPoint" />
          </mxGeometry>
        </mxCell>
        <mxCell id="kvWB5lQ28OjroLRQHnsC-70" value="" style="endArrow=classic;html=1;rounded=0;" edge="1" parent="1">
          <mxGeometry width="50" height="50" relative="1" as="geometry">
            <mxPoint x="630" y="1240" as="sourcePoint" />
            <mxPoint x="350" y="1240" as="targetPoint" />
          </mxGeometry>
        </mxCell>
        <mxCell id="kvWB5lQ28OjroLRQHnsC-71" value="&lt;font style=&quot;font-size: 10px;&quot;&gt;Create Session Response&lt;/font&gt;" style="text;html=1;align=left;verticalAlign=middle;whiteSpace=wrap;rounded=0;" vertex="1" parent="1">
          <mxGeometry x="640" y="1210" width="120" height="30" as="geometry" />
        </mxCell>
        <mxCell id="kvWB5lQ28OjroLRQHnsC-72" value="&lt;span style=&quot;font-size: 8px;&quot;&gt;GTP-ID, PDN IP Address Assigned to UE, AMBR, GBR&lt;/span&gt;" style="text;html=1;align=left;verticalAlign=middle;whiteSpace=wrap;rounded=0;fontStyle=2" vertex="1" parent="1">
          <mxGeometry x="640" y="1240" width="120" height="40" as="geometry" />
        </mxCell>
        <mxCell id="kvWB5lQ28OjroLRQHnsC-73" value="" style="endArrow=classic;html=1;rounded=0;fontColor=#33FF33;labelBackgroundColor=#B5739D;labelBorderColor=#67AB9F;fillColor=#f5f5f5;strokeColor=light-dark(#000000, #3a756b);" edge="1" parent="1">
          <mxGeometry width="50" height="50" relative="1" as="geometry">
            <mxPoint x="770" y="1239.31" as="sourcePoint" />
            <mxPoint x="630" y="1239.31" as="targetPoint" />
          </mxGeometry>
        </mxCell>
        <mxCell id="kvWB5lQ28OjroLRQHnsC-74" value="&lt;font style=&quot;font-size: 10px;&quot;&gt;Active Default Bearer + Initial Context Setup Request Attach Accept&lt;/font&gt;" style="text;html=1;align=left;verticalAlign=middle;whiteSpace=wrap;rounded=0;" vertex="1" parent="1">
          <mxGeometry x="220" y="1250" width="120" height="60" as="geometry" />
        </mxCell>
        <mxCell id="kvWB5lQ28OjroLRQHnsC-76" value="" style="endArrow=classic;html=1;rounded=0;fontColor=#33FF33;labelBackgroundColor=#B5739D;labelBorderColor=#67AB9F;fillColor=#f5f5f5;strokeColor=light-dark(#000000, #3a756b);" edge="1" parent="1">
          <mxGeometry width="50" height="50" relative="1" as="geometry">
            <mxPoint x="350" y="1309.31" as="sourcePoint" />
            <mxPoint x="210" y="1309.31" as="targetPoint" />
          </mxGeometry>
        </mxCell>
        <mxCell id="kvWB5lQ28OjroLRQHnsC-77" value="&lt;font style=&quot;font-size: 10px;&quot;&gt;Active Default Bearer Complete&lt;/font&gt;" style="text;html=1;align=left;verticalAlign=middle;whiteSpace=wrap;rounded=0;" vertex="1" parent="1">
          <mxGeometry x="220" y="1350" width="120" height="40" as="geometry" />
        </mxCell>
        <mxCell id="kvWB5lQ28OjroLRQHnsC-78" value="" style="endArrow=classic;html=1;rounded=0;fontColor=#33FF33;labelBackgroundColor=#B5739D;labelBorderColor=#67AB9F;fillColor=#f5f5f5;strokeColor=light-dark(#000000, #3a756b);" edge="1" parent="1">
          <mxGeometry width="50" height="50" relative="1" as="geometry">
            <mxPoint x="210" y="1389.31" as="sourcePoint" />
            <mxPoint x="350" y="1389.31" as="targetPoint" />
          </mxGeometry>
        </mxCell>
        <mxCell id="kvWB5lQ28OjroLRQHnsC-79" value="&lt;font style=&quot;font-size: 10px;&quot;&gt;UE Capability Enquiry&lt;/font&gt;" style="text;html=1;align=left;verticalAlign=middle;whiteSpace=wrap;rounded=0;" vertex="1" parent="1">
          <mxGeometry x="80" y="1410" width="120" height="30" as="geometry" />
        </mxCell>
        <mxCell id="kvWB5lQ28OjroLRQHnsC-80" value="" style="endArrow=classic;html=1;rounded=0;fontColor=#33FF33;labelBackgroundColor=#B5739D;labelBorderColor=#67AB9F;fillColor=#f5f5f5;strokeColor=light-dark(#000000, #3a756b);" edge="1" parent="1">
          <mxGeometry width="50" height="50" relative="1" as="geometry">
            <mxPoint x="210" y="1439.31" as="sourcePoint" />
            <mxPoint x="70" y="1439.31" as="targetPoint" />
          </mxGeometry>
        </mxCell>
        <mxCell id="kvWB5lQ28OjroLRQHnsC-81" value="" style="endArrow=classic;html=1;rounded=0;fontColor=#33FF33;labelBackgroundColor=#B5739D;labelBorderColor=#67AB9F;fillColor=#f5f5f5;strokeColor=light-dark(#000000, #3a756b);" edge="1" parent="1">
          <mxGeometry width="50" height="50" relative="1" as="geometry">
            <mxPoint x="70" y="1500" as="sourcePoint" />
            <mxPoint x="210" y="1500" as="targetPoint" />
          </mxGeometry>
        </mxCell>
        <mxCell id="kvWB5lQ28OjroLRQHnsC-82" value="&lt;font style=&quot;font-size: 10px;&quot;&gt;UE Capability Response&lt;/font&gt;" style="text;html=1;align=left;verticalAlign=middle;whiteSpace=wrap;rounded=0;" vertex="1" parent="1">
          <mxGeometry x="80" y="1480" width="120" height="20" as="geometry" />
        </mxCell>
        <mxCell id="kvWB5lQ28OjroLRQHnsC-83" value="&lt;span style=&quot;font-size: 8px;&quot;&gt;Supported 2G bands, supported 3G bands, Supported LTE bands&lt;/span&gt;&lt;div&gt;&lt;span style=&quot;font-size: 8px;&quot;&gt;Supported BW, Supported Band Class, UE Cat Feature Indicator Bits&lt;/span&gt;&lt;/div&gt;" style="text;html=1;align=left;verticalAlign=middle;whiteSpace=wrap;rounded=0;fontStyle=2" vertex="1" parent="1">
          <mxGeometry x="80" y="1500" width="120" height="80" as="geometry" />
        </mxCell>
        <mxCell id="kvWB5lQ28OjroLRQHnsC-84" value="" style="endArrow=classic;html=1;rounded=0;fontColor=#33FF33;labelBackgroundColor=#B5739D;labelBorderColor=#67AB9F;fillColor=#f5f5f5;strokeColor=light-dark(#000000, #3a756b);" edge="1" parent="1">
          <mxGeometry width="50" height="50" relative="1" as="geometry">
            <mxPoint x="210" y="1680" as="sourcePoint" />
            <mxPoint x="70" y="1680" as="targetPoint" />
          </mxGeometry>
        </mxCell>
        <mxCell id="kvWB5lQ28OjroLRQHnsC-85" value="&lt;font style=&quot;font-size: 10px;&quot;&gt;RRC Connection Reconfiguration + Attach Accept&lt;/font&gt;" style="text;html=1;align=left;verticalAlign=middle;whiteSpace=wrap;rounded=0;" vertex="1" parent="1">
          <mxGeometry x="80" y="1630" width="120" height="50" as="geometry" />
        </mxCell>
        <mxCell id="kvWB5lQ28OjroLRQHnsC-86" value="&lt;span style=&quot;font-size: 8px;&quot;&gt;RLC config, Mac config, CDRX config QCI, DRBs, SRB config, APN, PDN, Uplink Power, PDCP Sequence Number etc.&lt;/span&gt;" style="text;html=1;align=left;verticalAlign=middle;whiteSpace=wrap;rounded=0;fontStyle=2" vertex="1" parent="1">
          <mxGeometry x="80" y="1680" width="120" height="70" as="geometry" />
        </mxCell>
        <mxCell id="kvWB5lQ28OjroLRQHnsC-87" value="" style="endArrow=classic;html=1;rounded=0;" edge="1" parent="1">
          <mxGeometry width="50" height="50" relative="1" as="geometry">
            <mxPoint x="70" y="1840" as="sourcePoint" />
            <mxPoint x="210" y="1840" as="targetPoint" />
          </mxGeometry>
        </mxCell>
        <mxCell id="kvWB5lQ28OjroLRQHnsC-88" value="&lt;font style=&quot;font-size: 10px;&quot;&gt;RRC Connection Reconfiguration Complete&lt;/font&gt;" style="text;html=1;align=left;verticalAlign=middle;whiteSpace=wrap;rounded=0;" vertex="1" parent="1">
          <mxGeometry x="80" y="1790" width="120" height="50" as="geometry" />
        </mxCell>
        <mxCell id="kvWB5lQ28OjroLRQHnsC-89" value="" style="endArrow=classic;html=1;rounded=0;" edge="1" parent="1">
          <mxGeometry width="50" height="50" relative="1" as="geometry">
            <mxPoint x="210" y="1840" as="sourcePoint" />
            <mxPoint x="350" y="1840" as="targetPoint" />
          </mxGeometry>
        </mxCell>
        <mxCell id="kvWB5lQ28OjroLRQHnsC-90" value="&lt;span style=&quot;font-size: 10px;&quot;&gt;Attach Complete&lt;/span&gt;" style="text;html=1;align=left;verticalAlign=middle;whiteSpace=wrap;rounded=0;" vertex="1" parent="1">
          <mxGeometry x="220" y="1810" width="100" height="30" as="geometry" />
        </mxCell>
      </root>
    </mxGraphModel>
  </diagram>
</mxfile>
